<svg width="120" height="107" viewBox="0 0 120 107" fill="none" xmlns="http://www.w3.org/2000/svg">
<path d="M118.906 48.9717C120.365 51.499 120.365 54.6128 118.906 57.1401L92.9899 102.028C91.5307 104.555 88.8341 106.112 85.9157 106.112L34.0842 106.112C31.1659 106.112 28.4693 104.555 27.0101 102.028L1.09436 57.1401C-0.364795 54.6128 -0.364795 51.499 1.09436 48.9716L27.0101 4.08424C28.4693 1.5569 31.1659 -3.88306e-06 34.0842 -3.7555e-06L85.9158 -1.48987e-06C88.8341 -1.36231e-06 91.5307 1.5569 92.9899 4.08424L118.906 48.9717Z" fill="#207D46"/>
<path d="M36.6175 32.409H44.7265L56.9695 68.29L60.0435 68.82V72H44.4085V68.82L48.3835 68.29L46.3165 61.4H32.5895L30.5225 68.343L34.8155 68.82V72H21.3005L21.2475 68.82L24.4275 68.29L36.6175 32.409ZM40.2745 41.366L39.3205 37.232L38.3135 41.419L33.5965 57.69H45.2565L40.2745 41.366ZM67.7364 36.596L63.6024 35.907V32.621H71.4994C72.7007 32.621 74.2554 32.5504 76.1634 32.409C76.6227 32.3737 77.1704 32.3384 77.8064 32.303C78.4424 32.2677 79.1844 32.25 80.0324 32.25C85.3677 32.25 89.0954 33.0097 91.2154 34.529C93.3707 36.013 94.4484 38.239 94.4484 41.207C94.4484 43.8217 93.6534 46.0124 92.0634 47.779C90.5087 49.5104 88.4594 50.5704 85.9154 50.959C89.4134 50.9237 92.1517 51.7187 94.1304 53.344C96.1444 54.9694 97.1514 57.2307 97.1514 60.128C97.1514 63.8027 95.8617 66.753 93.2824 68.979C90.703 71.205 86.3924 72.318 80.3504 72.318C78.7604 72.318 77.294 72.265 75.9514 72.159C75.598 72.159 74.9974 72.1237 74.1494 72.053C73.3014 72.0177 72.4357 72 71.5524 72H63.5494V68.82L67.7364 68.29V36.596ZM75.4214 49.793C75.81 49.8284 76.605 49.846 77.8064 49.846H80.2974C82.4527 49.846 84.0604 49.1747 85.1204 47.832C86.1804 46.4894 86.7104 44.599 86.7104 42.161C86.7104 39.829 86.1627 38.133 85.0674 37.073C83.972 36.013 82.1524 35.483 79.6084 35.483C78.937 35.483 77.5414 35.5537 75.4214 35.695V49.793ZM75.4214 68.502C76.234 68.82 77.7887 68.979 80.0854 68.979C83.0887 68.979 85.2617 68.2724 86.6044 66.859C87.947 65.4457 88.6184 63.3964 88.6184 60.711C88.6184 58.1317 88 56.2944 86.7634 55.199C85.562 54.0684 83.6364 53.503 80.9864 53.503C78.0184 53.503 76.1634 53.5384 75.4214 53.609V68.502Z" fill="white"/>
</svg>
