<svg width="40" height="40" viewBox="0 0 40 40" fill="none" xmlns="http://www.w3.org/2000/svg">
<rect width="40" height="40" fill="white"/>
<path fill-rule="evenodd" clip-rule="evenodd" d="M4.96948 9.37686C4.96948 8.82458 5.4172 8.37686 5.96948 8.37686H34.0305C34.5828 8.37686 35.0305 8.82458 35.0305 9.37686C35.0305 9.92915 34.5828 10.3769 34.0305 10.3769H5.96948C5.4172 10.3769 4.96948 9.92915 4.96948 9.37686ZM4.96948 20C4.96948 19.4477 5.4172 19 5.96948 19H34.0305C34.5828 19 35.0305 19.4477 35.0305 20C35.0305 20.5523 34.5828 21 34.0305 21H5.96948C5.4172 21 4.96948 20.5523 4.96948 20ZM5.96948 29.6231C5.4172 29.6231 4.96948 30.0708 4.96948 30.6231C4.96948 31.1754 5.4172 31.6231 5.96948 31.6231H34.0305C34.5828 31.6231 35.0305 31.1754 35.0305 30.6231C35.0305 30.0708 34.5828 29.6231 34.0305 29.6231H5.96948Z" fill="#207D46"/>
</svg>
