<svg width="40" height="40" viewBox="0 0 40 40" fill="none" xmlns="http://www.w3.org/2000/svg">
<rect width="40" height="40" fill="white"/>
<path fill-rule="evenodd" clip-rule="evenodd" d="M34.524 5.01572C34.9235 5.39708 34.9345 6.0265 34.5485 6.42157L21.43 19.8509L21.4308 19.8516L21.2965 19.9887L21.4138 20.1007L21.4127 20.1019L34.9964 33.1055C35.3954 33.4874 35.4055 34.1169 35.019 34.5114C34.6326 34.9059 33.9958 34.9162 33.5969 34.5342L20.0152 21.5325L6.89884 34.9595C6.51292 35.3546 5.87622 35.3657 5.47674 34.9843C5.07727 34.603 5.06629 33.9735 5.45221 33.5785L18.5704 20.1495L18.5693 20.1484L18.7038 20.011L18.5869 19.8993L18.5877 19.8985L5.00357 6.89449C4.60462 6.51258 4.5945 5.88314 4.98098 5.48861C5.36745 5.09407 6.00416 5.08384 6.40311 5.46575L19.9853 18.4679L33.1019 5.04053C33.4878 4.64546 34.1245 4.63435 34.524 5.01572Z" fill="#32271C"/>
</svg>
